<svg id="Layer_1" data-name="Layer 1" xmlns="http://www.w3.org/2000/svg" viewBox="0 0 448.48 451.48"><defs><style>.cls-1{fill:#fff;}</style></defs><title>Artboard 3</title><circle class="cls-1" cx="178.65" cy="191.82" r="11.68" transform="translate(-83.31 182.51) rotate(-45)"/><circle class="cls-1" cx="337.98" cy="169.19" r="14.13" transform="translate(-20.64 288.55) rotate(-45)"/><circle class="cls-1" cx="231.92" cy="386.51" r="24.68" transform="translate(-205.38 277.2) rotate(-45)"/><path class="cls-1" d="M193.12,175.78A143,143,0,0,1,216,160.49a101.62,101.62,0,0,1,26.06-9.72,65.18,65.18,0,0,1,14.13-1.53,53.68,53.68,0,0,1,7.23.5,45.29,45.29,0,0,1,7.18,1.63,18.27,18.27,0,0,1,1.76.6c.58.22,1.17.43,1.75.67,1.14.53,2.3,1,3.39,1.65a34.3,34.3,0,0,1,6.25,4.32,36.27,36.27,0,0,1,9.17,12.13,46.83,46.83,0,0,1,4,14.47,65.23,65.23,0,0,1-.09,14.69,99.48,99.48,0,0,1-7.65,27.67c-7.61,17.48-18.83,33.05-32.07,46.54s-28.59,25.24-46.42,33.32a105.79,105.79,0,0,1-13.91,5,81.17,81.17,0,0,1-14.95,2.71,59.54,59.54,0,0,1-15.81-.78,45.33,45.33,0,0,1-15.55-5.94,40.4,40.4,0,0,1-12.17-11.91,42.17,42.17,0,0,1-3.85-7.47,45.23,45.23,0,0,1-2.25-7.84,55.09,55.09,0,0,1-.69-15.52,74,74,0,0,1,1.06-7.43c.27-1.21.53-2.42.82-3.61s.61-2.38,1-3.54a101.91,101.91,0,0,1,12.16-25.84,121.38,121.38,0,0,1,17.78-21.44l1.33,1.06a187,187,0,0,0-12.24,24,113.11,113.11,0,0,0-7.32,24.94c-1.35,8.33-1.35,16.73.76,23.94a25.76,25.76,0,0,0,12.36,16c5.93,3.25,13.49,4.26,21.31,3.67a70.18,70.18,0,0,0,11.89-1.93,96.82,96.82,0,0,0,11.89-3.71c15.77-5.94,30.63-15.6,43.35-27.5s23.7-25.9,31.28-41.5A89,89,0,0,0,287,198.56a55.76,55.76,0,0,0,.73-12.51,38,38,0,0,0-2.61-11.86,28.13,28.13,0,0,0-6.59-9.86,26.79,26.79,0,0,0-4.74-3.7c-.84-.57-1.76-1-2.66-1.49-.46-.23-.93-.42-1.4-.63a13.6,13.6,0,0,0-1.43-.58,38.54,38.54,0,0,0-6-1.74,47.33,47.33,0,0,0-6.33-.8,62.09,62.09,0,0,0-13,.63,97.48,97.48,0,0,0-25.43,7.72,140.3,140.3,0,0,0-23.42,13.4Z"/><path class="cls-1" d="M334.59,191.75a152.56,152.56,0,0,1-6.09,21.15,177,177,0,0,1-8.8,20.21,208.72,208.72,0,0,1-11,19.11c-4,6.18-8.23,12.2-12.8,18a262.51,262.51,0,0,1-30.05,32.34c-5.46,5-11.16,9.66-17,14.16s-12,8.65-18.29,12.56a190.57,190.57,0,0,1-40.28,18.93,135,135,0,0,1-21.89,5.19,96.27,96.27,0,0,1-22.74.8,70.37,70.37,0,0,1-22.46-5.68,56.31,56.31,0,0,1-18.91-14,59.24,59.24,0,0,1-11.4-20.62,78.25,78.25,0,0,1-3.5-23c-.18-15.42,3.16-30.45,8.17-44.65a204.58,204.58,0,0,1,19.85-40.39q6.08-9.46,12.94-18.37c4.65-5.87,9.5-11.58,14.61-17S155.41,159.74,161,154.8s11.4-9.7,17.45-14.12,12.3-8.55,18.75-12.37a210.45,210.45,0,0,1,19.94-10.41A171.71,171.71,0,0,1,238.28,110a131.56,131.56,0,0,1,22.13-4.76,99.52,99.52,0,0,1,22.75-.38,68.27,68.27,0,0,1,22.06,6,57.33,57.33,0,0,1,9.83,5.9c.75.59,1.47,1.22,2.21,1.82a24.26,24.26,0,0,1,2.13,1.89,53.34,53.34,0,0,1,3.91,4.13,51.22,51.22,0,0,1,6.25,9.38,57,57,0,0,1,4,10.38l-1.13.39a55.13,55.13,0,0,0-5-9.53,48.82,48.82,0,0,0-6.74-8.22c-1.24-1.26-2.64-2.33-4-3.47a21.36,21.36,0,0,0-2.11-1.57c-.72-.5-1.43-1-2.15-1.49a52.29,52.29,0,0,0-9.38-4.58,62.61,62.61,0,0,0-20.44-3.93,96.91,96.91,0,0,0-20.94,1.66,152.15,152.15,0,0,0-40,13.91c-6.34,3.2-12.55,6.69-18.57,10.49s-11.81,8-17.46,12.31A272,272,0,0,0,154,179c-4.86,5.22-9.58,10.57-14,16.12s-8.68,11.3-12.65,17.21-7.62,12-11,18.28a166.25,166.25,0,0,0-8.86,19.31c-5,13.19-8.4,27.08-8.56,40.94a69,69,0,0,0,2.64,20.28,50.31,50.31,0,0,0,9.28,17.68A47.81,47.81,0,0,0,126.65,341a62.38,62.38,0,0,0,19.74,5.4,88.73,88.73,0,0,0,21-.32,128,128,0,0,0,20.82-4.49,184.17,184.17,0,0,0,39.25-17.49c24.91-14.54,47.06-33.93,65.57-56.24,4.65-5.57,9-11.39,13.08-17.38a207.91,207.91,0,0,0,11.35-18.57,174.83,174.83,0,0,0,9.3-19.69,151,151,0,0,0,6.67-20.74Z"/><path class="cls-1" d="M202,401.63a261.87,261.87,0,0,1-32.6,12.46c-5.59,1.67-11.23,3.2-16.94,4.42s-11.49,2.21-17.32,2.91a142.25,142.25,0,0,1-35.26-.08,98.17,98.17,0,0,1-33.92-10.77,83.1,83.1,0,0,1-14.83-10.27l-3.33-3.06-3.11-3.29a80.89,80.89,0,0,1-5.8-7,18.61,18.61,0,0,1-1.31-1.85l-1.25-1.9L35,381.31a18.3,18.3,0,0,1-1.17-1.94,87.45,87.45,0,0,1-4.12-8.07l-1.83-4.15-1.51-4.26c-1.1-2.82-1.75-5.76-2.58-8.66-.44-1.45-.66-2.93-1-4.4L22,345.42,21.38,341c-.17-1.49-.46-3-.52-4.46a145.62,145.62,0,0,1-.47-17.91,186.64,186.64,0,0,1,4.77-35.29c5.36-23.11,14.26-45.2,25.33-66A337.19,337.19,0,0,1,68.62,187c1.59-2.48,3.31-4.87,5-7.29s3.36-4.84,5.15-7.18l5.3-7.07,5.5-6.92c1.81-2.33,3.76-4.53,5.65-6.79S99,147.2,101,145l5.91-6.57,6.09-6.4c8.2-8.45,16.67-16.67,25.59-24.38s18.07-15.2,27.66-22.11S185.66,72,195.92,66.1A328,328,0,0,1,227.6,49.74a257.74,257.74,0,0,1,33.66-12.5A204.49,204.49,0,0,1,296.89,30a142.67,142.67,0,0,1,37.11.58c3.11.56,6.23,1,9.31,1.86l4.63,1.15,4.57,1.49a96.43,96.43,0,0,1,9,3.49l1.12.47,1.08.55,2.17,1.11,2.16,1.12c.71.39,1.45.72,2.13,1.18l4.14,2.61c.68.45,1.39.85,2.05,1.34l2,1.48,3.91,3,3.65,3.29,1.82,1.66c.62.54,1.13,1.18,1.7,1.77l3.34,3.61a21,21,0,0,1,1.57,1.89l1.5,1.95,1.49,2a20.47,20.47,0,0,1,1.41,2,101,101,0,0,1,14.84,35.53,140.69,140.69,0,0,1,2.25,37.32c-1.79,24.62-8.74,48.05-18.2,70-1.23,2.72-2.39,5.48-3.69,8.16l-3.92,8-4.19,7.88c-1.39,2.63-2.95,5.16-4.41,7.74a330.94,330.94,0,0,1-19.56,29.63c-1.73,2.39-3.57,4.7-5.35,7.05-.9,1.17-1.78,2.35-2.7,3.5L351,287.82c-1.88,2.27-3.68,4.6-5.63,6.81l-5.81,6.64c-2,2.18-4,4.31-6,6.47-1,1.07-2,2.16-3,3.21l-3.1,3.13c-2.08,2.07-4.09,4.21-6.22,6.23l-6.37,6.06a358,358,0,0,1-55.58,42.53l-1.15-1.63a443.11,443.11,0,0,0,50.24-47.33c7.75-8.45,15.08-17.25,22.11-26.25s13.6-18.32,19.79-27.85l4.54-7.21c1.49-2.42,2.89-4.89,4.33-7.32s2.82-4.91,4.19-7.39,2.76-4.94,4-7.47,2.62-5,3.81-7.56l3.62-7.64,3.36-7.74c1.12-2.58,2.08-5.22,3.13-7.82a242.69,242.69,0,0,0,9.92-31.91,174.83,174.83,0,0,0,4.66-32.52,120.51,120.51,0,0,0-2.44-31.8,82.45,82.45,0,0,0-11.88-28.16A70.93,70.93,0,0,0,359.74,60.7a86.08,86.08,0,0,0-29-10.56,123.48,123.48,0,0,0-32.16-1.43A184.93,184.93,0,0,0,266,54.31C244.43,59.88,223.63,69,203.88,80,194,85.45,184.45,91.6,175.13,98.06s-18.31,13.44-27,20.75-17.08,15-25.16,23.06l-6,6.07-5.83,6.24c-2,2.06-3.82,4.22-5.71,6.35s-3.8,4.24-5.59,6.46l-5.47,6.56-5.28,6.71c-1.79,2.22-3.44,4.53-5.14,6.82s-3.41,4.57-5,6.93a325.15,325.15,0,0,0-18.2,28.87c-11.16,19.81-20.21,40.87-25.84,62.79A177.19,177.19,0,0,0,29.42,319a136.86,136.86,0,0,0,0,16.82c0,1.41.25,2.78.37,4.17l.43,4.17.71,4.12c.26,1.37.41,2.76.79,4.1.69,2.69,1.21,5.44,2.16,8.05l1.28,4,1.58,3.85a79.9,79.9,0,0,0,3.57,7.5,15.58,15.58,0,0,0,1,1.8l1.09,1.76,1.09,1.77a15.89,15.89,0,0,0,1.15,1.73,73.9,73.9,0,0,0,5.13,6.52l2.77,3.1,3,2.9a76.69,76.69,0,0,0,13.42,9.86,92.49,92.49,0,0,0,31.68,11,138.16,138.16,0,0,0,34.05,1c5.7-.5,11.38-1.29,17-2.31s11.25-2.34,16.81-3.81a259.32,259.32,0,0,0,32.66-11.29Z"/></svg>