<svg id="Layer_1" data-name="Layer 1" xmlns="http://www.w3.org/2000/svg" viewBox="0 0 448.48 451.48"><defs><style>.cls-1{fill:#fff;}</style></defs><title>Artboard 3 copy</title><path class="cls-1" d="M211.37,50.75a160.76,160.76,0,0,0-60.21,11.63q-3.67,1.48-7.26,3.13A161.06,161.06,0,0,0,117.35,81q-3.63,2.61-7.11,5.42a162.14,162.14,0,0,0-30.65,32.66q-1.41,2-2.75,4a160.93,160.93,0,0,0-11.78,21.07q-3.27,7.05-5.87,14.46a161,161,0,0,0-9,53.34c0,1.91,0,3.8.11,5.69q.27,7.73,1.24,15.26A161.37,161.37,0,0,0,252.21,368q6-1.57,11.82-3.58a160.21,160.21,0,0,0,19-8c1.76-.88,3.51-1.77,5.23-2.71A161.9,161.9,0,0,0,332.9,317.9q1.3-1.49,2.56-3a161.53,161.53,0,0,0,17.64-26q1.92-3.53,3.66-7.16a160.21,160.21,0,0,0,6.81-16.48q.56-1.6,1.08-3.21A161.31,161.31,0,0,0,211.37,50.75ZM91.91,267.13q28,22.22,57.78,42.17A121.68,121.68,0,0,1,91.91,267.13Zm97.27,48.75c-3.59,0-7.14-.16-10.65-.47-1.86-1.2-3.71-2.43-5.56-3.64-4.68-3.1-9.39-6.14-14-9.29-18.58-12.6-36.6-26-54.34-39.75L98,257.51c-2.21-1.73-4.44-3.44-6.6-5.23L78.33,241.65l-1.58-1.32a121.85,121.85,0,0,1-6.81-68.71c.83,1,1.65,2,2.48,3,3.72,4.3,7.39,8.64,11.16,12.89L95,200.14l11.64,12.45,11.92,12.18c4,4.06,8.09,8,12.12,12q24.42,23.76,50.54,45.64,18.47,15.33,37.57,29.85A121.64,121.64,0,0,1,189.18,315.88Zm38.37-6.19-1.82-1.44-3.31-2.61-3.24-2.69-6.49-5.39-6.48-5.39c-2.16-1.79-4.25-3.68-6.37-5.52-4.22-3.71-8.48-7.38-12.65-11.14-16.68-15.06-32.73-30.79-48.39-46.87-3.87-4.07-7.81-8.06-11.61-12.19l-11.4-12.38-11.22-12.54-11-12.72q-9.87-11.5-19.38-23.28a120.83,120.83,0,0,1,11.21-24q13.42,13.15,27.16,25.92,24.85,23.07,50.83,44.82c4.27,3.69,8.7,7.2,13.07,10.77l6.55,5.36c2.19,1.77,4.43,3.49,6.65,5.24l6.66,5.23c2.22,1.74,4.43,3.5,6.71,5.17l6.37,4.79c-3.84,5.66,1.84,16.48,12.78,24.27s23,9.62,27.09,4.17q11.48,7.79,23.17,15.28l.21.14A121.34,121.34,0,0,1,227.55,309.68Zm46.15-28.07-.53-.33-14.4-8.89-3.59-2.24-3.53-2.33-1.94-1.27c3.28-5.76-2.39-16.24-13.06-23.84-11-7.84-23.16-9.65-27.19-4.06-33.87-25.1-66.12-52.48-95.65-82.56q-13.5-13.67-26.29-28A122.06,122.06,0,0,1,118.24,96l2.13,2.52c3.73,4.27,7.43,8.58,11.19,12.82s7.59,8.44,11.46,12.59A868.57,868.57,0,0,0,243.23,216q25.27,19.8,52,37.7A121.86,121.86,0,0,1,273.7,281.61Zm26-36.79-9.52-6.74-3.43-2.44-3.37-2.52-6.74-5-6.74-5c-2.25-1.68-4.44-3.44-6.66-5.15-4.42-3.46-8.87-6.87-13.25-10.38-17.52-14-34.42-28.83-51-43.95l-6.18-5.72c-2.06-1.9-4.15-3.78-6.16-5.74l-12.17-11.64-12-11.8-11.81-12L139,104.5c-3.87-4.07-7.67-8.21-11.5-12.31l-1.33-1.47a120.77,120.77,0,0,1,28.15-12.54q8.84,10.59,18,20.94a984.87,984.87,0,0,0,96.64,95.39c4.3,3.68,8.69,7.26,13,10.89,2.19,1.8,4.33,3.65,6.55,5.4l6.66,5.27,6.66,5.27L305.1,224l1.57,1.18A120.5,120.5,0,0,1,299.68,244.83Zm8.09-24.26h0l-3.27-2.67-6.55-5.34-6.55-5.34c-2.18-1.77-4.29-3.65-6.43-5.47-4.26-3.68-8.57-7.3-12.79-11a978.88,978.88,0,0,1-94.64-96.21q-7.81-9.12-15.39-18.42A121.48,121.48,0,0,1,307.77,220.57Z"/></svg>