<svg xmlns="http://www.w3.org/2000/svg" viewBox="0 0 174 140.58"><defs><style>.cls-1{fill:#fff;}</style></defs><title>Artboard 7</title><g id="Layer_2" data-name="Layer 2"><polygon class="cls-1" points="165.11 51.97 150.87 35.35 134.98 37.49 148.58 54.73 165.11 51.97"/><polygon class="cls-1" points="43.32 72.75 42.41 51.51 22.27 54.01 19.21 76.22 43.32 72.75"/><path class="cls-1" d="M120.4,44.11l6.86,9.29,2.07,1.13a17.13,17.13,0,0,1,2.61,1.85l1.2,1.11L146.53,55,133.05,37.92,119,39.9A6.51,6.51,0,0,1,120.4,44.11Z"/><path class="cls-1" d="M70,68.64l-1.21-3.45,1.74-.52-2.26-6.55,7.24-1.21,5.69,18c2.4-7,8.88-14.1,18-18.66,8-4,16.38-5.23,23.09-3.89q.89.18,1.74.41l-4.76-6.34a6.2,6.2,0,0,1-2.41,1.21c-2.61,1.55-7.23,1.68-12.43.36l.82,1.58L104,47.93a37.64,37.64,0,0,1-5-1.73c-9.12-3.86-15.06-10.4-13.28-14.61a3.89,3.89,0,0,1,.25-.44,3.35,3.35,0,0,1,.13-.44,3.35,3.35,0,0,1,.2-.34l-7.86,5c.73,3.52,5.4,24.32,5.4,24.32L76.75,37.9l-3.81,11,1.89,6-7.4.89-1.78-5.11-1.83.55-.9-2.56L44.27,51.35l1.24,21.11ZM65.22,53.36l3.47,9.8-.57.22-3.46-9.83Z"/><path class="cls-1" d="M92,67.15a3.65,3.65,0,0,1,.62-2.22h0a1.87,1.87,0,0,0-.72,1.87Z"/><path class="cls-1" d="M94.11,68.93a2.6,2.6,0,0,0,1.58.4c.8-.08.81-1.34,0-1.26a1.43,1.43,0,0,1-.94-.23A.63.63,0,0,0,94.11,68.93Z"/><path class="cls-1" d="M90.59,68.42l2.47,6.19a2.35,2.35,0,0,0,3.06,1.32,92.82,92.82,0,0,0,9.38-4.31,2.81,2.81,0,0,0,.78-3.23c-.28-.75-.58-1.59-.88-2.42-.69-1.91-1.4-3.88-1.71-4.46a3.22,3.22,0,0,0-4.21-1.32c-2.54,1.12-7.79,3.72-8.52,4.08-.25.25-1.4,1.59-.37,4.16Zm1.31-4.52.1-.06c.18-.09,4.38-2.2,5.91-2.87a2.84,2.84,0,0,1,1.14-.26,2.4,2.4,0,0,1,.9.18,3.63,3.63,0,0,1,1.78,1.88h0s1.46,3.62,1.84,4.56.4,4.12-4.42,6.19a5.81,5.81,0,0,1-4.53.42,2.81,2.81,0,0,1-1.53-1.48c-.05-.09-1.89-3.75-2.39-5.26A3.17,3.17,0,0,1,91.91,63.91Z"/><path class="cls-1" d="M111.31,88.84c-2.79,1.45-8,3.68-8.06,3.7a3.88,3.88,0,0,1-1.83.24l.29.48c.1.2.79,1.42,2.9.42,2.7-1.28,6.61-3.15,6.85-3.27a2.65,2.65,0,0,0,1.42-2.77A5,5,0,0,1,111.31,88.84Z"/><path class="cls-1" d="M112.29,71.67c2.1-.9,8.12-3.87,8.18-3.9.22-.09,1.81-.86,1-3.14a2.26,2.26,0,0,0-2.46-.88c.48,1-1,2.68-3.36,3.86s-4.33,1.32-5,.54a2.64,2.64,0,0,0-.9,2.43A2.06,2.06,0,0,0,112.29,71.67Z"/><path class="cls-1" d="M117.48,85.84c2.06-.88,7.93-3.9,8-3.93s1.06-.53.18-2.84a2.09,2.09,0,0,0-1.25-.27,8.39,8.39,0,0,1-3.58,2.94,8,8,0,0,1-4.6,1.1,3.45,3.45,0,0,0-1.36,1.86h0C114.9,84.76,115.88,86.53,117.48,85.84Z"/><path class="cls-1" d="M121,71.86l-7.11,3.33a3.88,3.88,0,0,1-1.66.27c0,.27.09.55.15.81a1.2,1.2,0,0,0,.36.22,3.46,3.46,0,0,0,2.59-.41c2.34-1.1,4.53-2.2,5.63-2.75,0,0,.1-.06.14-.11l0,0,.57-.29c.05,0,2.09-1.3,1.67-3.28v0A6.46,6.46,0,0,1,121,71.86Z"/><path class="cls-1" d="M99.28,66.21a3.67,3.67,0,0,1-6.2,3.35c.59,1.25,1.16,2.39,1.17,2.41a1.62,1.62,0,0,0,.9.84,4.77,4.77,0,0,0,3.51-.43c3.88-1.66,4-3.91,3.75-4.57-.37-.93-1.78-4.43-1.83-4.55a2.43,2.43,0,0,0-1.1-1.19,1.31,1.31,0,0,0-1.06.07c-.57.25-1.54.72-2.53,1.2A3.66,3.66,0,0,1,99.28,66.21Z"/><path class="cls-1" d="M128.09,84l0,0,0,.07Z"/><path class="cls-1" d="M98.07,77.74l0,.18a3.91,3.91,0,0,0,0,.53.53.53,0,0,0,.14.29l.06.28c1.49-.72,4.95-2.37,6.69-3.05l-.39-.7h-.07a2.84,2.84,0,0,0-1.63-1c-1.42.69-3.06,1.47-4.48,2.07a3.25,3.25,0,0,0-.35,1.32Z"/><path class="cls-1" d="M112.95,78a12.51,12.51,0,0,0,.73,1.58,1.66,1.66,0,0,0,.12.53l.16-.14c.33-.18,6.53-3.43,7.75-4l.39-.15h0a12.94,12.94,0,0,0-.69-1.1c-1.17.59-3.25,1.63-5.46,2.66A5.17,5.17,0,0,1,112.95,78Z"/><path class="cls-1" d="M105.11,74.05l.31,0,.86,1.53.37,0a2.66,2.66,0,0,1,1.92.77h0a4,4,0,0,0,1.15-2.61l-.4-.89a1.73,1.73,0,0,0-.2-.18,3.9,3.9,0,0,0-2.33-.59,3.49,3.49,0,0,1-.56.55c-.14.08-1.26.66-2.73,1.39.27,0,.52,0,.73,0A7.13,7.13,0,0,1,105.11,74.05Z"/><path class="cls-1" d="M125.92,82.9c-.19.1-5.92,3-8,3.94a2.76,2.76,0,0,1-2.7-.22l.31.69a1.78,1.78,0,0,0,1,1,3.06,3.06,0,0,0,2.05-.18l7-3.26a3.88,3.88,0,0,0,1.75-1.9,2,2,0,0,0,0-1.1l-.24-.6A2.05,2.05,0,0,1,125.92,82.9Z"/><path class="cls-1" d="M110.46,66.52c.24-.13,5.23-2.86,7.55-3.92a3.7,3.7,0,0,1,1.45-.35l-.6-.7a2.55,2.55,0,0,0-1.76.1c-1.16.51-7.08,3.62-7.71,3.94-.17.14-.91.81-.68,1.56L109,68A4.91,4.91,0,0,1,110.46,66.52Z"/><path class="cls-1" d="M116.54,92.17l-.75-1.58-.71-.44.41-.19c-.41-.88-.89-1.92-1.37-3a3.3,3.3,0,0,1-.2-.62,3.62,3.62,0,0,1-.11-.36h0s-.58-2-1-3.22a2.2,2.2,0,0,1,.12-1.59l-.86-3.48A2.4,2.4,0,0,1,111,76.48s-.32-.67-.77-1.65a6.79,6.79,0,0,1-1.32,2.09l1.26,2.31h0l.47.85h0l.28.56.61,1.11h0c.07.11.3.52.64,1.19h0c.27.52.61,1.2,1,2a2.14,2.14,0,0,1,.25.55q.22.49.44,1a3.85,3.85,0,0,1-1.81,5h0s-4.07,2-6.86,3.28a4,4,0,0,1-3.06.34,2.7,2.7,0,0,1-1.49-1.3c0-.06-1.8-2.93-2.86-5.06a3,3,0,0,1-.26-.77h0c-.3-1-.8-2.7-1.13-4.21-6.34.54-11.26-.9-12.78-4.32-1.29-2.91.11-6.67,3.4-10.41-2,3.15-2.64,6.3-1.48,8.91,1.47,3.3,5.52,5,10.72,5.12-.06-.3-.1-.59-.13-.85a2.87,2.87,0,0,1-2.16-1.43,4,4,0,0,1-.21-2.51,6,6,0,0,1,.56-1.12,3.69,3.69,0,0,1-2.34-2.14l-2.47-6.19a6.34,6.34,0,0,1-.5-2.74c-7.27,7.22-10.27,16.18-6.82,23.07,4.63,9.23,19.18,11.35,33.15,5.16,0,0,.94-.45,2.35-1.2A1.89,1.89,0,0,1,116.54,92.17Z"/><path class="cls-1" d="M96,81.29a1.2,1.2,0,0,1,0-.12,3,3,0,0,1,1.14-1.53l-.49-2.28.22-.24.23-.22-.65.22a4.32,4.32,0,0,1-1.44.21,4,4,0,0,0-.67,2A1.85,1.85,0,0,0,96,81.29Z"/><path class="cls-1" d="M134.79,62.78c-4.85-9.66-20.57-11.58-35.12-4.28q-1.32.66-2.56,1.39L99,59a4.85,4.85,0,0,1,2-.44,4.5,4.5,0,0,1,3.85,2.31c.35.65,1.05,2.58,1.79,4.63.3.83.6,1.66.88,2.41a4.11,4.11,0,0,1,0,3,11.16,11.16,0,0,1,1.2.41,3.79,3.79,0,0,1-.18-.62c0-.12-.59-2-1-3.26a2.3,2.3,0,0,1,.12-1.64l-1.49-6.07c-.17-1.22,1.13-2,3.92-3.25a11.35,11.35,0,0,1,1.69-.6l.19.22a20.9,20.9,0,0,0-2.51,1.46,4.85,4.85,0,0,0-1.53,1.27.58.58,0,0,0-.27.36.73.73,0,0,0-.26.31l1.24,5,.06,0c.35-.19,6.67-3.51,7.92-4.06l.3-.11a9.27,9.27,0,0,0-1.2-1.66q-.82-1.53-1.71-3l.13,0,.18,0,4.16,4.42a3.88,3.88,0,0,1,1,.23l.13.06L122,63.26a3.48,3.48,0,0,1,.5.59l.06.11,2,5.21s0,.07,0,.11c2.35-3.36,3.18-6.77,1.94-9.56-1.12-2.51-3.74-4.12-7.21-4.79,4.71.15,8.23,1.63,9.48,4.43,1.37,3.09-.3,7.14-4.06,11.1a4.87,4.87,0,0,1-2.37,3.75l-.21.11,1.29,1.37a3.75,3.75,0,0,1,1,.22l.11,0,2.32,2.7a3.63,3.63,0,0,1,.3.32l.69.48,1.52,3.84,0,0v.07l.25.62C135.69,77.14,138,69.09,134.79,62.78Z"/><path class="cls-1" d="M101.29,88.54c1.47-.42,6.65-3.21,9.25-4.67.09-.12.33-.54-.06-1.32l-.14-.28c-.22-.19-.91-.6-2.4-.16a9.1,9.1,0,0,1-6.8,3.18l-1,.48a2.89,2.89,0,0,0-1.44,1.35,1.2,1.2,0,0,0-.06.32C99.65,89,100,88.91,101.29,88.54Z"/><path class="cls-1" d="M99.65,84.63l1.79-.89a6,6,0,0,1,1.58-.82l.34-.12c.94-.45,2-.95,3-1.42a6.67,6.67,0,0,1,2.8-.72l.37,0-1.92-3.51a1.6,1.6,0,0,0-1.48-.24c-1.1.29-6.1,2.68-7.93,3.58a1.88,1.88,0,0,0-.92,1,18.12,18.12,0,0,0,.85,4.25A4.78,4.78,0,0,1,99.65,84.63Z"/><path class="cls-1" d="M115.7,81.87c.24-.13,5.12-2.8,7.4-3.84a3.57,3.57,0,0,1,1.5-.35h.05l-.7-.81a2.61,2.61,0,0,0-1.79.09c-1.18.52-7.45,3.81-7.61,3.9,0,0-.91.74-.65,1.59l.3,1A4.73,4.73,0,0,1,115.7,81.87Z"/><path class="cls-1" d="M111.35,84.84l-.11.08c-.31.17-7.61,4.26-9.6,4.83A4.46,4.46,0,0,1,99.8,90l.44.79.06,0a2,2,0,0,0,2.47.65s5.21-2.23,8-3.66c.85-.44,1.37-.93,1.48-1.41a.86.86,0,0,0,0-.42l-.19-.41-.45-.89A1.74,1.74,0,0,1,111.35,84.84Z"/><path class="cls-1" d="M111.83,74.09a2.36,2.36,0,0,0,1.6,0l7.07-3.32a4.62,4.62,0,0,0,2-2.19,1.91,1.91,0,0,0,0-1.06A3.27,3.27,0,0,1,121,68.92c-.21.1-6.08,3-8.21,3.91a2.89,2.89,0,0,1-2,.15A2,2,0,0,0,111.83,74.09Z"/><path class="cls-1" d="M126.38,87.4l1.15-.58a3.25,3.25,0,0,0,1-1.3c0-.07,0-.14,0-.21l0,0A18.7,18.7,0,0,1,126.38,87.4Z"/><path class="cls-1" d="M120.26,90.43c2.24-1.08,4.71-2.32,6.12-3a18.7,18.7,0,0,0,2.09-2.06l0,0a2.61,2.61,0,0,0-.08-.56l-.31-.8L128,84a5.36,5.36,0,0,1-2,1.91l-7,3.27a4.33,4.33,0,0,1-2.53.32l.63,1.36A3.73,3.73,0,0,0,120.26,90.43Z"/><polygon class="cls-1" points="129.47 83.3 129.43 83.32 129.45 83.37 129.47 83.3"/><path class="cls-1" d="M115.08,90.14l.71.44-.3-.64Z"/><path class="cls-1" d="M104.87,30.73l.37.15a4.22,4.22,0,0,1,.89.27,4.11,4.11,0,0,1,.94.55A35.89,35.89,0,0,1,111.19,34l2.41.94a37.14,37.14,0,0,0-7.43-4.21c-1.07-.45-2.13-.83-3.17-1.16Z"/><path class="cls-1" d="M119.17,42.45l-.76-1a6.35,6.35,0,0,1,.62,2.41A3.64,3.64,0,0,0,119.17,42.45Z"/><path class="cls-1" d="M94.13,28.2l-.79,0h.82Z"/><path class="cls-1" d="M117.69,40.08l.67-.09a15.21,15.21,0,0,0-3.3-3.88l-.44-.37-.22-.18-.34-.26-1.67-.47A20.69,20.69,0,0,1,117.69,40.08Z"/><path class="cls-1" d="M118.36,40l-.67.09a10.17,10.17,0,0,1,.72,1.34l.76,1A6.16,6.16,0,0,0,118.36,40Z"/><path class="cls-1" d="M94.13,28.2l0,0a32.29,32.29,0,0,1,10.72,2.48L103,29.58A26.69,26.69,0,0,0,94.13,28.2Z"/><path class="cls-1" d="M91.33,29.48,95,30l-.89-1.73h-.82a10.51,10.51,0,0,0-2.5.52Z"/><path class="cls-1" d="M107.66,32.45l.79.49L111.19,34a35.89,35.89,0,0,0-4.12-2.31A1.56,1.56,0,0,1,107.66,32.45Z"/><path class="cls-1" d="M105.25,30.88l-.37-.15.19.12Z"/><path class="cls-1" d="M92,30.4l10,14.53,1,.34-7.43-14.4Z"/><path class="cls-1" d="M118.24,45.16a3.43,3.43,0,0,0,.69-1,3.31,3.31,0,0,0,.1-.32,6.35,6.35,0,0,0-.62-2.41l-1-1.3.24,0a20.69,20.69,0,0,0-5.3-5.26c-.81-.22-1.63-.45-2.43-.7Z"/><path class="cls-1" d="M117.45,40.12l1,1.3a10.17,10.17,0,0,0-.72-1.34Z"/><path class="cls-1" d="M107.67,32.63l.78.3-.79-.49A.49.49,0,0,1,107.67,32.63Z"/><path class="cls-1" d="M104.73,34.46c-1-.43-1.71-1.15-1.52-1.59l.37-.88-8.07-1.11,7.43,14.4a35.81,35.81,0,0,0,5.23,1.38c-.28-1.89-1.24-7.36-2-11.87A3.71,3.71,0,0,1,104.73,34.46Z"/><path class="cls-1" d="M118.24,45.16l-8.29-11c-.85-.26-1.68-.56-2.5-.91l-.52,1.23v0c.67,3.75,1.83,10.31,2.11,12.32l1.12.14C113.84,47.28,116.8,46.69,118.24,45.16Z"/><path class="cls-1" d="M90.84,28.77a6.49,6.49,0,0,0-1.13.51l1.62.2Z"/><path class="cls-1" d="M95,30l8.87,1.23,0,0c.12-.28.56-.39,1.13-.32l-.19-.12a32.29,32.29,0,0,0-10.72-2.48Z"/><path class="cls-1" d="M92,30.4,88.78,30A3.45,3.45,0,0,0,88,31.07c-1.58,3.73,4,9.63,12.39,13.25.52.22,1,.42,1.55.61Z"/></g></svg>